# xmcd
#
# Track frame offsets: 
#        150
#        10182
#        29892
#        43585
#        55947
#        71210
#        84000
#        96777
#        131350
#        142960
#        155827
#        196157
#        215410
#        237342
#        251095
#        267400
#
# Disc length: 3875 seconds
#
# Revision: 0
# Processed by: cddbd v1.5.1PL0 Copyright (c) Steve Scherf et al.
# Submitted via: ExactAudioCopy v0.95a5
#
DISCID=e40f2110
DTITLE=Carolina Opry - The Carolina Opry LIVE Vol. 2 - Disk 1
DYEAR=1900
DGENRE=Country
TTITLE0=Show Introduction
TTITLE1=I've Got Music In Me
TTITLE2=Country
TTITLE3=There's Your Trouble
TTITLE4=Ace In The Hole
TTITLE5=Pennies From Heaven
TTITLE6=Jump, Jive N' Then You Wail
TTITLE7=Comedy
TTITLE8=Wheel Hoss
TTITLE9=Light Of A Clear Blue Morning
TTITLE10=Dixie Cowboys Medley
TTITLE11=Tara's Theme
TTITLE12=When Mama Ain't Happy
TTITLE13=If You Want A Fool Around
TTITLE14=Love Sneakin' Up On You
TTITLE15=Comedy Two
EXTD=
EXTT0=
EXTT1=
EXTT2=
EXTT3=
EXTT4=
EXTT5=
EXTT6=
EXTT7=
EXTT8=
EXTT9=
EXTT10=
EXTT11=
EXTT12=
EXTT13=
EXTT14=
EXTT15=
PLAYORDER=
